<?xml version="1.0" encoding="iso-8859-1"?>
<!-- Generator: Adobe Illustrator 19.0.0, SVG Export Plug-In . SVG Version: 6.00 Build 0)  -->
<svg version="1.1" id="Layer_1" xmlns="http://www.w3.org/2000/svg" xmlns:xlink="http://www.w3.org/1999/xlink" x="0px" y="0px"
	 viewBox="0 0 491.52 491.52" style="enable-background:new 0 0 491.52 491.52;" xml:space="preserve">
<rect style="fill:#EBF0F3;" width="491.52" height="491.52"/>
<g>
	<polygon style="fill:#D5D6DB;" points="465.917,455.082 64.951,455.082 64.951,46.157 73.888,46.157 73.888,446.145 
		465.917,446.145 	"/>
	<rect x="69.422" y="397.466" style="fill:#D5D6DB;" width="396.493" height="8.934"/>
	<rect x="69.422" y="349.747" style="fill:#D5D6DB;" width="396.493" height="8.934"/>
	<rect x="69.422" y="302.013" style="fill:#D5D6DB;" width="396.493" height="8.934"/>
	<rect x="69.422" y="254.295" style="fill:#D5D6DB;" width="396.493" height="8.934"/>
	<rect x="69.422" y="206.592" style="fill:#D5D6DB;" width="396.493" height="8.934"/>
	<rect x="69.422" y="158.874" style="fill:#D5D6DB;" width="396.493" height="8.934"/>
	<rect x="69.422" y="111.15" style="fill:#D5D6DB;" width="396.493" height="8.934"/>
	<rect x="69.422" y="63.427" style="fill:#D5D6DB;" width="396.493" height="8.934"/>
</g>
<g>
	<path style="fill:#64798A;" d="M30.435,458.407c-1.27-1.763-1.907-4.119-1.907-7.06c0-2.95,0.637-5.307,1.907-7.069
		c1.27-1.763,3.181-2.644,5.738-2.644c2.552,0,4.464,0.881,5.734,2.644c1.27,1.762,1.907,4.119,1.907,7.069
		c0,2.941-0.637,5.297-1.907,7.06c-1.27,1.763-3.181,2.644-5.734,2.644C33.616,461.052,31.705,460.171,30.435,458.407z
		 M32.7,446.277c-0.742,1.282-1.113,2.976-1.113,5.071c0,2.086,0.371,3.778,1.113,5.062c0.742,1.291,1.898,1.929,3.474,1.929
		c1.571,0,2.719-0.637,3.443-1.912c0.724-1.282,1.086-2.976,1.086-5.079c0-2.113-0.362-3.805-1.086-5.089
		c-0.725-1.273-1.872-1.911-3.443-1.911C34.598,444.348,33.441,444.985,32.7,446.277z"/>
	<path style="fill:#64798A;" d="M41.441,393.858v2.862h-7.907v4.617c0.786-0.428,1.676-0.646,2.679-0.646
		c1.75,0,3.259,0.524,4.529,1.58c1.27,1.056,1.903,2.487,1.903,4.294c0,1.806-0.659,3.299-1.981,4.485
		c-1.322,1.196-2.949,1.789-4.879,1.789c-2.522,0-4.534-0.846-6.035-2.522l1.689-2.304c0.144,0.139,0.336,0.305,0.576,0.506
		c0.244,0.201,0.737,0.463,1.488,0.794c0.751,0.332,1.575,0.489,2.469,0.489c0.89,0,1.707-0.262,2.44-0.803
		c0.733-0.533,1.099-1.317,1.099-2.348c0-1.021-0.388-1.815-1.169-2.383c-0.777-0.559-1.759-0.846-2.946-0.846
		c-1.191,0-2.322,0.297-3.395,0.89l-1.34-1.449v-9.006H41.441z"/>
	<path style="fill:#64798A;" d="M22.62,346.107h6.812v18.738H26.43v-15.927h-3.81V346.107z"/>
	<path style="fill:#64798A;" d="M35.545,362.418c-1.27-1.762-1.907-4.119-1.907-7.06c0-2.95,0.637-5.307,1.907-7.069
		c1.27-1.763,3.181-2.644,5.738-2.644c2.552,0,4.464,0.881,5.734,2.644c1.27,1.762,1.907,4.119,1.907,7.069
		c0,2.941-0.637,5.298-1.907,7.06c-1.27,1.763-3.181,2.644-5.734,2.644C38.726,365.063,36.815,364.181,35.545,362.418z
		 M37.81,350.287c-0.742,1.283-1.113,2.976-1.113,5.071c0,2.086,0.371,3.779,1.113,5.062c0.742,1.291,1.898,1.929,3.474,1.929
		c1.571,0,2.719-0.637,3.442-1.911c0.725-1.283,1.087-2.976,1.087-5.08c0-2.112-0.362-3.805-1.087-5.088
		c-0.724-1.274-1.871-1.912-3.442-1.912C39.708,348.359,38.551,348.996,37.81,350.287z"/>
	<path style="fill:#64798A;" d="M24.082,297.894h6.812v18.738h-3.003v-15.927h-3.809V297.894z"/>
	<path style="fill:#64798A;" d="M46.55,297.868v2.862h-7.906v4.617c0.786-0.427,1.676-0.645,2.679-0.645
		c1.75,0,3.259,0.524,4.529,1.579c1.27,1.056,1.903,2.487,1.903,4.294c0,1.806-0.659,3.299-1.981,4.485
		c-1.322,1.196-2.95,1.789-4.878,1.789c-2.522,0-4.534-0.846-6.035-2.522l1.689-2.304c0.144,0.139,0.336,0.306,0.576,0.506
		c0.245,0.201,0.738,0.463,1.488,0.794c0.751,0.332,1.576,0.489,2.47,0.489c0.89,0,1.706-0.262,2.44-0.803
		c0.733-0.533,1.099-1.318,1.099-2.348c0-1.021-0.388-1.816-1.169-2.383c-0.777-0.559-1.759-0.847-2.946-0.847
		c-1.191,0-2.322,0.297-3.395,0.89l-1.34-1.449v-9.006H46.55z"/>
	<path style="fill:#64798A;" d="M29,257.431c0.536-0.733,0.807-1.475,0.807-2.225c0-0.751-0.288-1.388-0.86-1.912
		c-0.572-0.532-1.296-0.794-2.173-0.794c-1.535,0-2.814,0.786-3.831,2.356l-2.548-1.475c0.825-1.231,1.727-2.156,2.723-2.784
		c0.99-0.628,2.269-0.943,3.831-0.943c1.567,0,2.937,0.498,4.119,1.492c1.178,0.995,1.768,2.348,1.768,4.058
		c0,0.969-0.249,1.885-0.751,2.767c-0.502,0.872-1.423,1.998-2.762,3.377l-4.394,4.477h8.496v3.029H20.608v-2.679l5.685-5.717
		C27.564,259.177,28.467,258.165,29,257.431z"/>
	<path style="fill:#64798A;" d="M38.333,266.43c-1.27-1.763-1.907-4.12-1.907-7.061c0-2.949,0.637-5.306,1.907-7.069
		c1.27-1.762,3.181-2.644,5.738-2.644c2.552,0,4.464,0.882,5.734,2.644c1.27,1.763,1.907,4.12,1.907,7.069
		c0,2.941-0.637,5.298-1.907,7.061c-1.27,1.762-3.181,2.644-5.734,2.644C41.515,269.074,39.603,268.192,38.333,266.43z
		 M40.598,254.298c-0.742,1.283-1.113,2.977-1.113,5.071c0,2.086,0.371,3.779,1.113,5.062c0.742,1.292,1.898,1.929,3.474,1.929
		c1.571,0,2.719-0.637,3.442-1.912c0.725-1.283,1.087-2.976,1.087-5.08c0-2.112-0.362-3.804-1.087-5.088
		c-0.724-1.274-1.871-1.912-3.442-1.912C42.496,252.37,41.34,253.007,40.598,254.298z"/>
	<path style="fill:#64798A;" d="M30.461,209.438c0.537-0.734,0.808-1.475,0.808-2.226s-0.289-1.387-0.86-1.911
		c-0.572-0.533-1.296-0.794-2.173-0.794c-1.536,0-2.814,0.786-3.831,2.357l-2.549-1.475c0.825-1.231,1.728-2.156,2.723-2.784
		c0.991-0.628,2.269-0.943,3.831-0.943c1.567,0,2.937,0.498,4.12,1.492c1.178,0.996,1.767,2.348,1.767,4.058
		c0,0.969-0.248,1.886-0.75,2.767c-0.502,0.873-1.423,1.998-2.762,3.377l-4.394,4.477h8.496v3.029H22.07v-2.679l5.686-5.717
		C29.026,211.183,29.929,210.17,30.461,209.438z"/>
	<path style="fill:#64798A;" d="M49.338,202.098v2.862h-7.906v4.617c0.786-0.428,1.676-0.646,2.679-0.646
		c1.75,0,3.259,0.524,4.529,1.58c1.27,1.055,1.903,2.487,1.903,4.293c0,1.807-0.659,3.299-1.981,4.486
		c-1.322,1.196-2.949,1.789-4.878,1.789c-2.522,0-4.534-0.846-6.035-2.522l1.689-2.305c0.144,0.14,0.336,0.306,0.576,0.507
		c0.244,0.2,0.737,0.462,1.488,0.794c0.75,0.332,1.575,0.488,2.469,0.488c0.89,0,1.706-0.262,2.44-0.803
		c0.733-0.533,1.099-1.318,1.099-2.348c0-1.021-0.388-1.815-1.169-2.383c-0.777-0.559-1.759-0.846-2.946-0.846
		c-1.191,0-2.322,0.297-3.395,0.89l-1.34-1.449v-9.006H49.338z"/>
	<path style="fill:#64798A;" d="M21.267,156.926v-2.811h10.966v2.461l-4.53,5.071c1.715,0.053,3.055,0.593,4.02,1.624
		c0.964,1.03,1.449,2.251,1.449,3.683c0,1.911-0.646,3.412-1.942,4.503c-1.296,1.09-2.963,1.641-5.001,1.641
		s-4.032-0.655-5.978-1.964l1.34-2.539c1.535,1.064,3.146,1.605,4.826,1.605c1.091,0,1.986-0.253,2.693-0.768
		c0.707-0.506,1.06-1.24,1.06-2.199c0-0.951-0.392-1.719-1.178-2.286c-0.79-0.576-1.881-0.864-3.273-0.864
		c-0.698,0-1.366,0.105-2.012,0.297v-2.408l4.346-5.045H21.267z"/>
	<path style="fill:#64798A;" d="M38.185,170.427c-1.27-1.762-1.907-4.119-1.907-7.06c0-2.95,0.637-5.306,1.907-7.069
		c1.27-1.763,3.181-2.644,5.738-2.644c2.552,0,4.464,0.881,5.734,2.644c1.27,1.763,1.907,4.119,1.907,7.069
		c0,2.941-0.637,5.298-1.907,7.06c-1.27,1.763-3.181,2.644-5.734,2.644C41.366,173.071,39.455,172.19,38.185,170.427z
		 M40.45,158.296c-0.742,1.283-1.113,2.976-1.113,5.071c0,2.086,0.371,3.779,1.113,5.062c0.742,1.291,1.898,1.929,3.474,1.929
		c1.571,0,2.719-0.637,3.442-1.911c0.725-1.283,1.087-2.976,1.087-5.08c0-2.112-0.362-3.805-1.087-5.088
		c-0.724-1.274-1.871-1.912-3.442-1.912C42.348,156.368,41.191,157.005,40.45,158.296z"/>
	<path style="fill:#64798A;" d="M22.729,108.714v-2.811h10.966v2.461l-4.53,5.071c1.715,0.053,3.055,0.593,4.019,1.624
		c0.964,1.03,1.449,2.251,1.449,3.683c0,1.911-0.645,3.412-1.942,4.503c-1.296,1.09-2.963,1.641-5,1.641s-4.032-0.655-5.979-1.964
		l1.34-2.539c1.536,1.064,3.147,1.606,4.827,1.606c1.09,0,1.985-0.254,2.692-0.769c0.707-0.506,1.061-1.24,1.061-2.199
		c0-0.951-0.392-1.719-1.178-2.286c-0.79-0.576-1.881-0.864-3.273-0.864c-0.699,0-1.366,0.105-2.012,0.297v-2.408l4.346-5.045
		H22.729z"/>
	<path style="fill:#64798A;" d="M49.19,105.877v2.862h-7.906v4.617c0.786-0.427,1.676-0.645,2.679-0.645
		c1.75,0,3.259,0.524,4.529,1.579c1.27,1.056,1.903,2.487,1.903,4.294c0,1.806-0.659,3.299-1.981,4.485
		c-1.322,1.196-2.95,1.789-4.879,1.789c-2.522,0-4.534-0.846-6.035-2.522l1.689-2.304c0.144,0.139,0.336,0.306,0.576,0.506
		c0.244,0.201,0.737,0.463,1.488,0.794c0.75,0.332,1.575,0.489,2.469,0.489c0.89,0,1.706-0.262,2.44-0.803
		c0.733-0.533,1.099-1.318,1.099-2.348c0-1.021-0.388-1.816-1.169-2.383c-0.777-0.559-1.759-0.847-2.945-0.847
		c-1.191,0-2.322,0.297-3.395,0.89l-1.34-1.449v-9.006H49.19z"/>
	<path style="fill:#64798A;" d="M28.319,69.294v-3.439h3.002v3.439h2.252v2.862h-2.252v4.721h-3.002v-4.721h-8.047v-2.784
		l6.89-11.233h3.46l-6.786,11.154H28.319z"/>
	<path style="fill:#64798A;" d="M38.102,74.451c-1.27-1.762-1.907-4.119-1.907-7.06c0-2.95,0.637-5.307,1.907-7.069
		c1.27-1.763,3.181-2.644,5.738-2.644c2.553,0,4.464,0.881,5.734,2.644c1.27,1.762,1.907,4.119,1.907,7.069
		c0,2.941-0.637,5.298-1.907,7.06c-1.27,1.763-3.181,2.644-5.734,2.644C41.283,77.096,39.372,76.214,38.102,74.451z M40.366,62.32
		c-0.742,1.283-1.113,2.976-1.113,5.071c0,2.086,0.371,3.779,1.113,5.062c0.742,1.291,1.898,1.929,3.474,1.929
		c1.571,0,2.719-0.637,3.443-1.911c0.724-1.283,1.086-2.976,1.086-5.08c0-2.112-0.362-3.805-1.086-5.088
		c-0.725-1.274-1.872-1.912-3.443-1.912C42.265,60.392,41.108,61.029,40.366,62.32z"/>
</g>
<rect x="102.963" y="243.784" style="fill:#FCD462;" width="49.792" height="208.41"/>
<rect x="194.662" y="151.839" style="fill:#44C4A1;" width="49.792" height="300.355"/>
<rect x="286.397" y="289.741" style="fill:#E56353;" width="49.792" height="162.437"/>
<rect x="378.117" y="210.074" style="fill:#27A2DB;" width="49.792" height="242.125"/>
<g>
</g>
<g>
</g>
<g>
</g>
<g>
</g>
<g>
</g>
<g>
</g>
<g>
</g>
<g>
</g>
<g>
</g>
<g>
</g>
<g>
</g>
<g>
</g>
<g>
</g>
<g>
</g>
<g>
</g>
</svg>
