<svg xmlns="http://www.w3.org/2000/svg" viewBox="0 0 1920 1080"><defs><style>.a{fill:#220749;}.b{fill:none;stroke:#572daa;stroke-miterlimit:10;stroke-width:3px;}.c{fill:#9e76ff;}.d{fill:#a4e1ff;}.e{fill:#c1b4ac;}.f{fill:#fff2eb;}.g{fill:#7551af;}.h{fill:#5b3296;}.i{fill:#4a1884;}</style></defs><title>space-and-stars-background</title><rect class="a" x="-23" y="-14" width="1972" height="1125"/><ellipse class="b" cx="419.75" cy="329.75" rx="473.75" ry="422.75"/><ellipse class="b" cx="1601.28" cy="740.3" rx="473.75" ry="422.75"/><ellipse class="b" cx="1275.79" cy="196.4" rx="473.75" ry="422.75"/><circle class="c" cx="177" cy="171" r="9"/><circle class="c" cx="253" cy="299" r="9"/><circle class="c" cx="454" cy="171" r="9"/><circle class="c" cx="673" cy="308" r="9"/><circle class="c" cx="717" cy="103" r="9"/><circle class="c" cx="170.32" cy="718.25" r="9" transform="translate(-555.17 581.99) rotate(-66.02)"/><circle class="c" cx="187.74" cy="866.09" r="9" transform="matrix(0.41, -0.91, 0.91, 0.41, -679.9, 685.67)"/><circle class="c" cx="423.42" cy="830.82" r="9" transform="translate(-507.78 880.07) rotate(-66.02)"/><circle class="c" cx="567.84" cy="1045" r="9" transform="translate(-617.74 1139.17) rotate(-66.02)"/><circle class="c" cx="691.35" cy="875.57" r="9" transform="translate(-389.61 1151.44) rotate(-66.02)"/><circle class="c" cx="1817.4" cy="195.27" r="9" transform="translate(6.19 441.38) rotate(-13.87)"/><circle class="c" cx="1712.93" cy="89.22" r="9" transform="translate(28.56 413.24) rotate(-13.87)"/><circle class="c" cx="1548.47" cy="261.67" r="9" transform="translate(-17.58 378.85) rotate(-13.87)"/><circle class="c" cx="1303.02" cy="181.17" r="9" transform="translate(-5.43 317.66) rotate(-13.87)"/><circle class="c" cx="1309.45" cy="390.74" r="9" transform="translate(-55.49 325.31) rotate(-13.87)"/><circle class="c" cx="1279.03" cy="980.07" r="9" transform="translate(-306.36 691.99) rotate(-27.16)"/><circle class="c" cx="1405.08" cy="1059.25" r="9" transform="translate(-328.61 758.27) rotate(-27.16)"/><circle class="c" cx="1525.48" cy="853.61" r="9" transform="translate(-221.45 790.55) rotate(-27.16)"/><circle class="c" cx="1782.87" cy="875.52" r="9" transform="translate(-203.07 910.47) rotate(-27.16)"/><circle class="c" cx="1728.43" cy="673.04" r="9" transform="translate(-116.64 863.29) rotate(-27.16)"/><circle class="c" cx="307" cy="436" r="8.5"/><circle class="c" cx="949" cy="391" r="8.5"/><circle class="c" cx="700" cy="567" r="8.5"/><circle class="c" cx="1203" cy="678" r="8.5"/><circle class="c" cx="1152" cy="536" r="8.5"/><circle class="c" cx="908" cy="709" r="8.5"/><circle class="c" cx="1675" cy="444" r="8.5"/><circle class="c" cx="1888" cy="567" r="8.5"/><circle class="c" cx="137" cy="346" r="8.5"/><circle class="c" cx="146" cy="58" r="8.5"/><path class="d" d="M1539.63,167.54s-786.9,405.75-793,427.54S1539.63,167.54,1539.63,167.54Z"/><circle class="e" cx="394.16" cy="291.36" r="84" transform="translate(-80.15 167.74) rotate(-21.86)"/><ellipse class="f" cx="389.54" cy="231.51" rx="23.45" ry="9.27" transform="translate(-58.19 161.71) rotate(-21.86)"/><ellipse class="f" cx="373.17" cy="263.94" rx="10.36" ry="9.27" transform="translate(-71.45 157.95) rotate(-21.86)"/><ellipse class="f" cx="404.76" cy="251.85" rx="8.18" ry="4.36" transform="translate(-64.67 168.84) rotate(-21.86)"/><polygon class="c" points="228.96 540.39 208.57 493 218.77 545.29 178.94 570.34 223.81 553.82 228.96 540.39"/><polygon class="c" points="228.96 540.39 275.79 518.76 233.26 550.84 246.15 596.1 223.81 553.82 228.96 540.39"/><polygon class="c" points="1044.95 127.39 1024.57 80 1034.77 132.29 994.93 157.34 1039.81 140.82 1044.95 127.39"/><polygon class="c" points="1044.95 127.39 1091.79 105.76 1049.26 137.84 1062.15 183.1 1039.81 140.82 1044.95 127.39"/><polygon class="c" points="1558.95 696.39 1538.57 649 1548.77 701.29 1508.93 726.34 1553.81 709.82 1558.95 696.39"/><polygon class="c" points="1558.95 696.39 1605.79 674.76 1563.26 706.84 1576.15 752.1 1553.81 709.82 1558.95 696.39"/><polygon class="c" points="972.96 840.39 952.57 793 962.77 845.29 922.93 870.34 967.81 853.82 972.96 840.39"/><polygon class="c" points="972.96 840.39 1019.79 818.76 977.26 850.84 990.15 896.1 967.81 853.82 972.96 840.39"/><path class="g" d="M691.27,948.72C568.66,936,439.54,997.73,375,1008.1s-193.69-9.9-350.65-39.59a355.91,355.91,0,0,0-78-5.63v106.49h961.7v-62.21S813.87,961.44,691.27,948.72Z"/><path class="h" d="M1127,961.62c-111.27.47-222.24,51.73-280.55,61.09-64.56,10.37-193.69-9.9-350.65-39.59s-318.66,63.15-318.66,63.15V1084H1127Z"/><path class="i" d="M1127,1055.08c-24-10.62-106.85-44.55-209.77-55.23-122.61-12.72-251.73,49-316.29,59.38s-193.69-9.9-350.65-39.59C121.55,995.29-10.37,1053.37-53.65,1075v45.46H1127Z"/><path class="g" d="M1562.08,948.72c122.61-12.72,251.73,49,316.29,59.38s193.69-9.9,350.65-39.59a355.91,355.91,0,0,1,78-5.63v106.49H1345.3v-62.21S1439.47,961.44,1562.08,948.72Z"/><path class="h" d="M1126.35,961.62c111.27.47,222.24,51.73,280.55,61.09,64.56,10.37,193.69-9.9,350.65-39.59s318.66,63.15,318.66,63.15V1084H1126.35Z"/><path class="i" d="M1126.35,1055.08c24-10.62,106.85-44.55,209.77-55.23,122.61-12.72,251.73,49,316.29,59.38s193.69-9.9,350.65-39.59c128.74-24.35,260.66,33.72,303.94,55.4v45.46H1126.35Z"/></svg>