<?xml version="1.0" encoding="utf-8"?>
<!-- Generator: Adobe Illustrator 26.0.2, SVG Export Plug-In . SVG Version: 6.00 Build 0)  -->
<svg version="1.1" id="Warstwa_3" xmlns="http://www.w3.org/2000/svg" xmlns:xlink="http://www.w3.org/1999/xlink" x="0px" y="0px"
	 viewBox="0 0 430 430" style="enable-background:new 0 0 430 430;" xml:space="preserve">
<style type="text/css">
	.st0{fill:url(#SVGID_1_);}
	.st1{fill:url(#SVGID_00000119118540421928793150000001938861488781540030_);}
	.st2{fill:url(#SVGID_00000034048109870495676620000012055707641861350791_);}
	.st3{fill:url(#SVGID_00000136375668121354210790000011416910801849818763_);}
	.st4{fill:url(#SVGID_00000149345276265683345640000016592069769494337944_);}
	.st5{fill:url(#SVGID_00000173863714597459999760000004343433659156461958_);}
	.st6{fill:url(#SVGID_00000143576517618204177300000003796711383771142791_);}
	.st7{fill:url(#SVGID_00000142136500923478277530000012303807349950230158_);}
	.st8{fill:url(#SVGID_00000105406488630311195250000008727052391335383992_);}
	.st9{fill:url(#SVGID_00000121964975180066636780000014125700176562879673_);}
	.st10{fill:url(#SVGID_00000172406310434089087330000018218444000398019207_);}
	.st11{fill:url(#SVGID_00000101100643785762610870000009609467483654879654_);}
	.st12{fill:url(#SVGID_00000147184617679729899910000015677995882678985859_);}
	.st13{fill:url(#SVGID_00000117663591980468728520000014156560762092278453_);}
	.st14{fill:url(#SVGID_00000086662457947568424700000003693198913595553453_);}
	.st15{fill:url(#SVGID_00000124120345834811092260000003302437641293121439_);}
	.st16{fill:url(#SVGID_00000166673609186531427540000007145761382103866537_);}
	.st17{fill:url(#SVGID_00000136383040422555400440000007283771699594634162_);}
	.st18{fill:url(#SVGID_00000168108902260623588790000004475931353497712051_);}
	.st19{fill:url(#SVGID_00000003809864870837016500000003802570745142640022_);}
	.st20{fill:url(#SVGID_00000127008894240512974400000014326216133279028392_);}
	.st21{fill:url(#SVGID_00000163031662048872863610000001936813173483630256_);}
	.st22{fill:url(#SVGID_00000021113479362771471760000000824110739325210806_);}
	.st23{fill:url(#SVGID_00000181049181580455883880000013625491317168850623_);}
	.st24{fill:url(#SVGID_00000095329572664504473790000016013722320562643858_);}
	.st25{fill:url(#SVGID_00000111869451072143347820000008928146377880165036_);}
	.st26{fill:url(#SVGID_00000100374019156629307260000018246041897128470442_);}
	.st27{fill:url(#SVGID_00000047053224496608873610000000967752875080772266_);}
	.st28{fill:url(#SVGID_00000103950932135004959520000001217332481543055524_);}
	.st29{fill:url(#SVGID_00000132078411373509662300000008285602866214280073_);}
	.st30{fill:url(#SVGID_00000134213810687103685260000000553440892413450122_);}
	.st31{fill:url(#SVGID_00000168814059115669645910000009765871046987000758_);}
	.st32{fill:url(#SVGID_00000180365534634245084270000004080858657056998054_);}
	.st33{fill:url(#SVGID_00000013186285960083041490000013286745765246460842_);}
	.st34{fill:url(#SVGID_00000155132597948486217400000011389682162740788370_);}
	.st35{fill:url(#SVGID_00000116200087747277815340000001477367958324550276_);}
	.st36{fill:url(#SVGID_00000163060707318863355140000010706758314561132175_);}
	.st37{fill:url(#SVGID_00000022549652206464822070000000183896355154781089_);}
	.st38{fill:url(#SVGID_00000013887947428977863780000005432594869796638336_);}
	.st39{fill:url(#SVGID_00000139265264873058535710000018431964719220822159_);}
	.st40{fill:url(#SVGID_00000183943419898430199030000001472096067608838057_);}
	.st41{fill:url(#SVGID_00000069382702233173534720000002540664724467920566_);}
	.st42{fill:url(#SVGID_00000031912805719218406050000014112105255006814375_);}
	.st43{fill:url(#SVGID_00000145747336084798197430000007705489791557068951_);}
	.st44{fill:url(#SVGID_00000132784849916202120660000007639607759876661158_);}
	.st45{fill:url(#SVGID_00000047039962268749183290000015385410787418623650_);}
	.st46{fill:url(#SVGID_00000002354129794127670050000006080824362291322550_);}
	.st47{fill:url(#SVGID_00000085240551219424370050000009616562868346781060_);}
	.st48{fill:url(#SVGID_00000104683357879114299590000007141092333888085426_);}
	.st49{fill:url(#SVGID_00000106869401927952462230000012833124501328796055_);}
	.st50{fill:url(#SVGID_00000093863614293324417140000007330376574296643718_);}
	.st51{fill:url(#SVGID_00000033370271594131935090000015364347828588776878_);}
	.st52{fill:url(#SVGID_00000047776171834680384780000007135028242952777890_);}
	.st53{fill:url(#SVGID_00000109016828019516045330000006008162807959713411_);}
	.st54{fill:url(#SVGID_00000113342661402130993980000003230544279382649274_);}
	.st55{fill:url(#SVGID_00000105428856332085719830000011391277697823870098_);}
	.st56{fill:url(#SVGID_00000070114548667217680030000002688124945026146473_);}
	.st57{fill:url(#SVGID_00000168078479935072418580000004636372278696203393_);}
	.st58{fill:url(#SVGID_00000140710408400173959990000005913666539351032220_);}
	.st59{fill:url(#SVGID_00000051362167463520045430000016935838039544431510_);}
	.st60{fill:url(#SVGID_00000104677743789165737400000016281875890505179031_);}
	.st61{fill:url(#SVGID_00000164514015717429379820000012681947062363187133_);}
	.st62{fill:url(#SVGID_00000158723707754623336870000005485467599384445879_);}
	.st63{fill:url(#SVGID_00000083056662018699248140000009625531249697386374_);}
	.st64{fill:url(#SVGID_00000013890069985732601460000012794229330136989372_);}
	.st65{fill:url(#SVGID_00000054264312492545333750000017049469504843439544_);}
	.st66{fill:url(#SVGID_00000089543299452718057060000014720794659385079993_);}
	.st67{fill:url(#SVGID_00000013900131451692007500000008172464202295230873_);}
	.st68{fill:url(#SVGID_00000140712636769989091520000010781010968510345396_);}
	.st69{fill:url(#SVGID_00000051371332491051003830000000704144474024334234_);}
	.st70{fill:url(#SVGID_00000118354982033769711230000001346418732794717063_);}
	.st71{fill:url(#SVGID_00000111172898333936935590000014835082131926120326_);}
	.st72{fill:url(#SVGID_00000029034652735584117380000010045990606332380606_);}
</style>
<linearGradient id="SVGID_1_" gradientUnits="userSpaceOnUse" x1="66.3945" y1="62.1577" x2="363.4561" y2="359.2192">
	<stop  offset="0" style="stop-color:#cb5eee"/>
	<stop  offset="1" style="stop-color:#4be1ec"/>
</linearGradient>
<path class="st0" d="M232.36,296.89h-35.09c-9.17,0-16.63,7.46-16.63,16.63v35.09c0,9.17,7.46,16.63,16.63,16.63h35.09
	c9.17,0,16.63-7.46,16.63-16.63v-35.09C248.99,304.35,241.53,296.89,232.36,296.89z M236.39,348.61c0,2.22-1.81,4.03-4.03,4.03
	h-35.09c-2.22,0-4.03-1.81-4.03-4.03v-35.09c0-2.22,1.81-4.03,4.03-4.03h35.09c2.22,0,4.03,1.81,4.03,4.03V348.61z M151.68,136.39
	h-35.1c-9.17,0-16.63,7.46-16.63,16.63v35.09c0,9.17,7.46,16.63,16.63,16.63h35.1c9.17,0,16.63-7.46,16.63-16.63v-35.09
	C168.31,143.85,160.85,136.39,151.68,136.39z M155.71,188.11c0,2.22-1.81,4.03-4.03,4.03h-35.1c-2.22,0-4.03-1.81-4.03-4.03v-35.09
	c0-2.22,1.81-4.03,4.03-4.03h35.1c2.22,0,4.03,1.81,4.03,4.03V188.11z M151.57,296.89h-35.09c-9.17,0-16.63,7.46-16.63,16.63v35.09
	c0,9.17,7.46,16.63,16.63,16.63h35.09c9.17,0,16.63-7.46,16.63-16.63v-35.09C168.2,304.35,160.74,296.89,151.57,296.89z
	 M155.6,348.61c0,2.22-1.81,4.03-4.03,4.03h-35.09c-2.22,0-4.03-1.81-4.03-4.03v-35.09c0-2.22,1.81-4.03,4.03-4.03h35.09
	c2.22,0,4.03,1.81,4.03,4.03V348.61z M116.38,284.75h35.1c9.17,0,16.63-7.46,16.63-16.63v-35.09c0-9.17-7.46-16.63-16.63-16.63
	h-35.1c-9.17,0-16.63,7.46-16.63,16.63v35.09C99.75,277.28,107.21,284.75,116.38,284.75z M112.35,233.02c0-2.22,1.81-4.03,4.03-4.03
	h35.1c2.22,0,4.03,1.81,4.03,4.03v35.09c0,2.22-1.81,4.03-4.03,4.03h-35.1c-2.22,0-4.03-1.81-4.03-4.03V233.02z M317.5,30.96H112.35
	c-19.68,0-35.68,16.01-35.68,35.69v288.09c0,19.68,16.01,35.69,35.68,35.69H317.5c19.68,0,35.68-16.01,35.68-35.69V66.64
	C353.18,46.97,337.18,30.96,317.5,30.96z M340.58,354.73c0,12.73-10.36,23.09-23.08,23.09H112.35c-12.73,0-23.08-10.36-23.08-23.09
	V66.64c0-12.73,10.36-23.09,23.08-23.09H317.5c12.73,0,23.08,10.36,23.08,23.09V354.73z M232.47,136.39h-35.1
	c-9.17,0-16.63,7.46-16.63,16.63v35.09c0,9.17,7.46,16.63,16.63,16.63h35.1c9.17,0,16.63-7.46,16.63-16.63v-35.09
	C249.11,143.85,241.64,136.39,232.47,136.39z M236.51,188.11c0,2.22-1.81,4.03-4.03,4.03h-35.1c-2.22,0-4.03-1.81-4.03-4.03v-35.09
	c0-2.22,1.81-4.03,4.03-4.03h35.1c2.22,0,4.03,1.81,4.03,4.03V188.11z M313.27,136.39h-35.1c-9.17,0-16.63,7.46-16.63,16.63v35.09
	c0,9.17,7.46,16.63,16.63,16.63h35.1c9.17,0,16.63-7.46,16.63-16.63v-35.09C329.9,143.85,322.44,136.39,313.27,136.39z
	 M317.3,188.11c0,2.22-1.81,4.03-4.03,4.03h-35.1c-2.22,0-4.03-1.81-4.03-4.03v-35.09c0-2.22,1.81-4.03,4.03-4.03h35.1
	c2.22,0,4.03,1.81,4.03,4.03V188.11z M197.17,284.75h35.1c9.17,0,16.63-7.46,16.63-16.63v-35.09c0-9.17-7.46-16.63-16.63-16.63
	h-35.1c-9.17,0-16.63,7.46-16.63,16.63v35.09C180.54,277.28,188,284.75,197.17,284.75z M193.14,233.02c0-2.22,1.81-4.03,4.03-4.03
	h35.1c2.22,0,4.03,1.81,4.03,4.03v35.09c0,2.22-1.81,4.03-4.03,4.03h-35.1c-2.22,0-4.03-1.81-4.03-4.03V233.02z M313.03,216.36
	h-35.09c-9.17,0-16.63,7.46-16.63,16.64l0.22,115.08c0,9.17,7.46,16.63,16.63,16.63h35.09c9.17,0,16.63-7.46,16.63-16.64
	l-0.22-115.08C329.67,223.82,322.21,216.36,313.03,216.36z M313.26,352.12h-35.09c-2.22,0-4.03-1.81-4.03-4.04l-0.22-115.08
	c0-2.22,1.81-4.03,4.03-4.03h35.09c2.22,0,4.03,1.81,4.03,4.04l0.22,115.08C317.29,350.31,315.48,352.12,313.26,352.12z
	 M304.75,56.5H125.1c-13.87,0-25.15,11.28-25.15,25.15v18.06c0,13.87,11.28,25.15,25.15,25.15h179.64
	c13.87,0,25.15-11.28,25.15-25.15V81.65C329.9,67.78,318.62,56.5,304.75,56.5z M317.3,99.71c0,6.92-5.63,12.55-12.55,12.55H125.1
	c-6.92,0-12.55-5.63-12.55-12.55V81.65c0-6.92,5.63-12.55,12.55-12.55h179.64c6.92,0,12.55,5.63,12.55,12.55V99.71z M300.68,90.7
	c0,6.64-5.41,12.05-12.05,12.05s-12.05-5.41-12.05-12.05s5.41-12.05,12.05-12.05S300.68,84.06,300.68,90.7z M266.18,90.7
	c0,6.64-5.41,12.05-12.05,12.05s-12.05-5.41-12.05-12.05s5.41-12.05,12.05-12.05S266.18,84.06,266.18,90.7z M231.18,90.7
	c0,6.64-5.41,12.05-12.05,12.05s-12.05-5.41-12.05-12.05s5.41-12.05,12.05-12.05S231.18,84.06,231.18,90.7z"/>
</svg>
